# xmcd CD database file
#
# Track frame offsets:
#	150
#	17532
#	35475
#	42691
#	64042
#	81273
#	92786
#	115886
#	121702
#	142817
#	151507
#	185317
#	220898
#	241354
#	256756
#	298871
#
# Disc length: 4233 seconds
#
# Revision: 0
# Processed by: cddbd v1.5.2PL0 Copyright (c) Steve Scherf et al.
# Submitted via: CDex 1.79
#
DISCID=d4108710
DTITLE=Bill Evans - Waltz For Debby [Box Set] [CD 4)
DYEAR=2011
DGENRE=Jazz
TTITLE0=I Love You
TTITLE1=Five
TTITLE2=I Got It Bad (And That Ain't Good)
TTITLE3=Conception
TTITLE4=Easy Living
TTITLE5=Displacement
TTITLE6=Speak Low
TTITLE7=Waltz For Debby
TTITLE8=Our Delight
TTITLE9=My Romance
TTITLE10=No Cover, No Minimum
TTITLE11=Celia (with Charles Mingus Jazz Workshop)
TTITLE12=Nothin' (with Cannonball Adderley)
TTITLE13=There's A Boat Dat's Leavin' Soon For New York (with Bill Potts)
TTITLE14=So What (with Miles Davis)
TTITLE15=Misery (To Lady Day) (with Tony Scott)
EXTD=YEAR: 2011
EXTT0=
EXTT1=
EXTT2=
EXTT3=
EXTT4=
EXTT5=
EXTT6=
EXTT7=
EXTT8=
EXTT9=
EXTT10=
EXTT11=
EXTT12=
EXTT13=
EXTT14=
EXTT15=
PLAYORDER=
